<svg xmlns="http://www.w3.org/2000/svg" version="1.1" width="100px" height="100px" style="shape-rendering:geometricPrecision; text-rendering:geometricPrecision; image-rendering:optimizeQuality; fill-rule:evenodd; clip-rule:evenodd" xmlns:xlink="http://www.w3.org/1999/xlink">
<g><path style="opacity:0.989" fill="#caece6" d="M 69.5,17.5 C 68.1667,18.1667 67.1667,19.1667 66.5,20.5C 63.4952,20.2147 60.4952,20.7147 57.5,22C 55.4841,25.3435 53.4841,28.6768 51.5,32C 52.7143,34.6743 54.0477,37.1743 55.5,39.5C 55.5,40.1667 55.5,40.8333 55.5,41.5C 55.2849,43.7743 54.6182,45.941 53.5,48C 54.2073,50.5869 55.5406,52.7536 57.5,54.5C 57.5,55.8333 58.1667,56.5 59.5,56.5C 59.8333,57.1667 60.1667,57.8333 60.5,58.5C 60.5,58.8333 60.5,59.1667 60.5,59.5C 57.5786,60.696 54.5786,61.696 51.5,62.5C 50.609,61.8902 49.609,61.5569 48.5,61.5C 46.9577,60.8592 45.6243,59.8592 44.5,58.5C 47.0853,56.0811 49.0853,53.2478 50.5,50C 51.5152,48.6269 51.5152,47.4602 50.5,46.5C 50.5,42.5 50.5,38.5 50.5,34.5C 49.5,34.5 48.5,34.5 47.5,34.5C 42.2114,30.325 37.2114,30.6584 32.5,35.5C 31.8826,35.6107 31.3826,35.944 31,36.5C 30.1993,39.367 30.3659,42.0336 31.5,44.5C 31.1667,45.1667 30.8333,45.8333 30.5,46.5C 29.7041,49.6187 30.7041,52.2854 33.5,54.5C 34.4756,55.8149 35.4756,57.1482 36.5,58.5C 35.3757,59.8592 34.0423,60.8592 32.5,61.5C 30.6203,61.2291 29.287,61.8958 28.5,63.5C 26.742,63.1231 25.0754,62.4565 23.5,61.5C 22.2613,61.9424 21.2613,62.6091 20.5,63.5C 19.8333,63.5 19.1667,63.5 18.5,63.5C 15.9837,63.2447 13.6504,62.4114 11.5,61C 9.49373,57.6156 7.49373,54.2822 5.5,51C 7.88719,50.0239 9.05386,48.1906 9,45.5C 11.0287,42.4044 13.862,40.7377 17.5,40.5C 18.4654,34.0303 22.1321,29.8637 28.5,28C 31.0991,27.231 33.5991,27.3977 36,28.5C 36.8333,26.8333 37.6667,25.1667 38.5,23.5C 37.9747,22.8076 37.3081,22.3076 36.5,22C 37.8333,21.6667 39.1667,21.3333 40.5,21C 32.8328,20.1872 33.1661,19.5205 41.5,19C 50.618,11.1373 59.9513,10.6373 69.5,17.5 Z"/></g>
<g><path style="opacity:1" fill="#998a84" d="M 69.5,17.5 C 70.5,18.1667 71.5,18.8333 72.5,19.5C 70.4352,19.5172 68.4352,19.8505 66.5,20.5C 67.1667,19.1667 68.1667,18.1667 69.5,17.5 Z"/></g>
<g><path style="opacity:1" fill="#f3f1e4" d="M 72.5,19.5 C 73.3764,19.3691 74.0431,19.7025 74.5,20.5C 75.0149,22.2251 75.6816,23.8917 76.5,25.5C 77.7678,24.5721 79.1011,24.4054 80.5,25C 82.4155,26.8554 84.5821,28.3554 87,29.5C 87.8959,32.025 87.3959,34.1917 85.5,36C 79.2608,37.4305 73.5942,36.4305 68.5,33C 63.6935,31.8423 59.3601,32.6757 55.5,35.5C 53.5589,33.9894 53.0589,31.9894 54,29.5C 55.8294,27.8442 57.1628,25.8442 58,23.5C 60.3333,22.1667 62.6667,22.1667 65,23.5C 66.0386,22.7562 66.5386,21.7562 66.5,20.5C 68.4352,19.8505 70.4352,19.5172 72.5,19.5 Z"/></g>
<g><path style="opacity:1" fill="#7a6e69" d="M 66.5,20.5 C 66.5386,21.7562 66.0386,22.7562 65,23.5C 62.6667,22.1667 60.3333,22.1667 58,23.5C 57.1628,25.8442 55.8294,27.8442 54,29.5C 53.0589,31.9894 53.5589,33.9894 55.5,35.5C 55.5,36.8333 55.5,38.1667 55.5,39.5C 54.0477,37.1743 52.7143,34.6743 51.5,32C 53.4841,28.6768 55.4841,25.3435 57.5,22C 60.4952,20.7147 63.4952,20.2147 66.5,20.5 Z"/></g>
<g><path style="opacity:1" fill="#563532" d="M 69.5,17.5 C 71.1992,17.3398 72.8659,17.5065 74.5,18C 77.1752,21.1085 80.1752,23.7751 83.5,26C 88.445,26.7085 90.2783,29.5418 89,34.5C 87.9609,35.7101 86.7942,36.7101 85.5,37.5C 81.5,37.5 77.5,37.5 73.5,37.5C 73.3259,39.861 72.9926,42.1944 72.5,44.5C 72.1667,44.5 71.8333,44.5 71.5,44.5C 68.0202,39.9716 63.3535,38.305 57.5,39.5C 57.5,40.5 57.5,41.5 57.5,42.5C 56.8333,42.1667 56.1667,41.8333 55.5,41.5C 55.5,40.8333 55.5,40.1667 55.5,39.5C 55.5,38.1667 55.5,36.8333 55.5,35.5C 59.3601,32.6757 63.6935,31.8423 68.5,33C 73.5942,36.4305 79.2608,37.4305 85.5,36C 87.3959,34.1917 87.8959,32.025 87,29.5C 84.5821,28.3554 82.4155,26.8554 80.5,25C 79.1011,24.4054 77.7678,24.5721 76.5,25.5C 75.6816,23.8917 75.0149,22.2251 74.5,20.5C 74.0431,19.7025 73.3764,19.3691 72.5,19.5C 71.5,18.8333 70.5,18.1667 69.5,17.5 Z"/></g>
<g><path style="opacity:1" fill="#b07244" d="M 47.5,34.5 C 49.437,37.4993 49.937,40.8326 49,44.5C 48.7216,43.5842 48.2216,42.9175 47.5,42.5C 43.7627,42.8604 39.9294,42.1938 36,40.5C 33.9655,41.9442 33.1322,43.9442 33.5,46.5C 32.5,46.5 31.5,46.5 30.5,46.5C 30.8333,45.8333 31.1667,45.1667 31.5,44.5C 31.3677,41.4299 31.701,38.4299 32.5,35.5C 37.2114,30.6584 42.2114,30.325 47.5,34.5 Z"/></g>
<g><path style="opacity:0.98" fill="#c7ebe4" d="M 85.5,37.5 C 88.4713,42.8769 89.138,48.5435 87.5,54.5C 91.7524,60.9609 91.419,67.1275 86.5,73C 83.3334,75.1236 80,75.6236 76.5,74.5C 70.5241,81.2201 63.6908,82.2201 56,77.5C 48.7529,83.5691 40.5862,85.0691 31.5,82C 29.1552,79.7984 26.4886,78.2984 23.5,77.5C 25.6074,76.5318 27.9407,76.1984 30.5,76.5C 32.2884,77.6225 34.2884,77.7891 36.5,77C 38.5532,75.3221 38.8866,73.4888 37.5,71.5C 37.4226,70.2502 36.756,69.4169 35.5,69C 49.8295,68.5001 64.1628,68.3334 78.5,68.5C 78.7373,67.209 78.404,66.209 77.5,65.5C 75.9995,63.6342 73.9995,62.3008 71.5,61.5C 69.31,60.6255 68.31,58.9589 68.5,56.5C 70.5,56.5 71.5,55.5 71.5,53.5C 74.8497,50.7708 75.1831,47.7708 72.5,44.5C 72.9926,42.1944 73.3259,39.861 73.5,37.5C 77.5,37.5 81.5,37.5 85.5,37.5 Z"/></g>
<g><path style="opacity:1" fill="#6b544a" d="M 32.5,35.5 C 31.701,38.4299 31.3677,41.4299 31.5,44.5C 30.3659,42.0336 30.1993,39.367 31,36.5C 31.3826,35.944 31.8826,35.6107 32.5,35.5 Z"/></g>
<g><path style="opacity:1" fill="#efceb2" d="M 71.5,44.5 C 71.5,47.5 71.5,50.5 71.5,53.5C 71.5,55.5 70.5,56.5 68.5,56.5C 65.5352,57.7335 62.5352,57.7335 59.5,56.5C 58.1667,56.5 57.5,55.8333 57.5,54.5C 56.2337,50.4677 56.2337,46.4677 57.5,42.5C 57.5,41.5 57.5,40.5 57.5,39.5C 63.3535,38.305 68.0202,39.9716 71.5,44.5 Z"/></g>
<g><path style="opacity:1" fill="#756157" d="M 47.5,34.5 C 48.5,34.5 49.5,34.5 50.5,34.5C 50.5,38.5 50.5,42.5 50.5,46.5C 49.5,46.5 48.5,46.5 47.5,46.5C 47.5,45.1667 47.5,43.8333 47.5,42.5C 48.2216,42.9175 48.7216,43.5842 49,44.5C 49.937,40.8326 49.437,37.4993 47.5,34.5 Z"/></g>
<g><path style="opacity:1" fill="#f4d2b5" d="M 47.5,42.5 C 47.5,43.8333 47.5,45.1667 47.5,46.5C 47.3366,57.3529 42.6699,60.0196 33.5,54.5C 33.5,51.8333 33.5,49.1667 33.5,46.5C 33.1322,43.9442 33.9655,41.9442 36,40.5C 39.9294,42.1938 43.7627,42.8604 47.5,42.5 Z"/></g>
<g><path style="opacity:1" fill="#997a6b" d="M 41.5,44.5 C 42.6009,43.4017 43.9343,43.235 45.5,44C 44.1667,44.6667 44.1667,45.3333 45.5,46C 45,46.5 44.5,47 44,47.5C 43.7645,45.8807 42.9311,44.8807 41.5,44.5 Z"/></g>
<g><path style="opacity:1" fill="#998174" d="M 55.5,41.5 C 56.1667,41.8333 56.8333,42.1667 57.5,42.5C 56.2337,46.4677 56.2337,50.4677 57.5,54.5C 55.5406,52.7536 54.2073,50.5869 53.5,48C 54.6182,45.941 55.2849,43.7743 55.5,41.5 Z"/></g>
<g><path style="opacity:1" fill="#8b6c5f" d="M 59.5,45.5 C 61.337,45.6395 61.6704,46.3061 60.5,47.5C 59.7025,47.0431 59.3691,46.3764 59.5,45.5 Z"/></g>
<g><path style="opacity:1" fill="#b19785" d="M 30.5,46.5 C 31.5,46.5 32.5,46.5 33.5,46.5C 33.5,49.1667 33.5,51.8333 33.5,54.5C 30.7041,52.2854 29.7041,49.6187 30.5,46.5 Z"/></g>
<g><path style="opacity:1" fill="#8f796e" d="M 71.5,44.5 C 71.8333,44.5 72.1667,44.5 72.5,44.5C 75.1831,47.7708 74.8497,50.7708 71.5,53.5C 71.5,50.5 71.5,47.5 71.5,44.5 Z"/></g>
<g><path style="opacity:1" fill="#958475" d="M 47.5,46.5 C 48.5,46.5 49.5,46.5 50.5,46.5C 51.5152,47.4602 51.5152,48.6269 50.5,50C 49.0853,53.2478 47.0853,56.0811 44.5,58.5C 45.6243,59.8592 46.9577,60.8592 48.5,61.5C 46.8333,61.5 45.1667,61.5 43.5,61.5C 43.5,60.5 43.5,59.5 43.5,58.5C 41.5,58.5 39.5,58.5 37.5,58.5C 37.5,59.5 37.5,60.5 37.5,61.5C 35.8333,61.5 34.1667,61.5 32.5,61.5C 34.0423,60.8592 35.3757,59.8592 36.5,58.5C 35.4756,57.1482 34.4756,55.8149 33.5,54.5C 42.6699,60.0196 47.3366,57.3529 47.5,46.5 Z"/></g>
<g><path style="opacity:1" fill="#f6bc80" d="M 43.5,61.5 C 41.5,61.5 39.5,61.5 37.5,61.5C 37.5,60.5 37.5,59.5 37.5,58.5C 39.5,58.5 41.5,58.5 43.5,58.5C 43.5,59.5 43.5,60.5 43.5,61.5 Z"/></g>
<g><path style="opacity:1" fill="#f0b87e" d="M 60.5,58.5 C 62.8333,58.5 65.1667,58.5 67.5,58.5C 67.5,59.5 67.5,60.5 67.5,61.5C 65.1667,61.5 62.8333,61.5 60.5,61.5C 60.5,60.8333 60.5,60.1667 60.5,59.5C 60.5,59.1667 60.5,58.8333 60.5,58.5 Z"/></g>
<g><path style="opacity:1" fill="#7d5c53" d="M 59.5,56.5 C 62.5352,57.7335 65.5352,57.7335 68.5,56.5C 68.31,58.9589 69.31,60.6255 71.5,61.5C 70.1667,61.5 68.8333,61.5 67.5,61.5C 67.5,60.5 67.5,59.5 67.5,58.5C 65.1667,58.5 62.8333,58.5 60.5,58.5C 60.1667,57.8333 59.8333,57.1667 59.5,56.5 Z"/></g>
<g><path style="opacity:1" fill="#6cbcc1" d="M 32.5,61.5 C 34.1667,61.5 35.8333,61.5 37.5,61.5C 39.5,61.5 41.5,61.5 43.5,61.5C 45.1667,61.5 46.8333,61.5 48.5,61.5C 49.609,61.5569 50.609,61.8902 51.5,62.5C 51.8333,63.5 52.5,64.1667 53.5,64.5C 53.5,64.8333 53.5,65.1667 53.5,65.5C 47.588,67.4563 41.2547,68.1229 34.5,67.5C 33.5,67.1667 32.8333,66.5 32.5,65.5C 31.1667,64.8333 29.8333,64.1667 28.5,63.5C 29.287,61.8958 30.6203,61.2291 32.5,61.5 Z"/></g>
<g><path style="opacity:1" fill="#995653" d="M 60.5,59.5 C 60.5,60.1667 60.5,60.8333 60.5,61.5C 57.7594,61.7073 55.4261,62.7073 53.5,64.5C 52.5,64.1667 51.8333,63.5 51.5,62.5C 54.5786,61.696 57.5786,60.696 60.5,59.5 Z"/></g>
<g><path style="opacity:1" fill="#e33f52" d="M 60.5,61.5 C 62.8333,61.5 65.1667,61.5 67.5,61.5C 68.8333,61.5 70.1667,61.5 71.5,61.5C 73.9995,62.3008 75.9995,63.6342 77.5,65.5C 74.0623,66.8232 70.229,67.4898 66,67.5C 61.5787,67.4313 57.412,66.7646 53.5,65.5C 53.5,65.1667 53.5,64.8333 53.5,64.5C 55.4261,62.7073 57.7594,61.7073 60.5,61.5 Z"/></g>
<g><path style="opacity:1" fill="#f5f3e6" d="M 20.5,63.5 C 23.7553,63.0136 26.422,64.0136 28.5,66.5C 29.7362,65.7542 31.0695,65.4208 32.5,65.5C 32.8333,66.5 33.5,67.1667 34.5,67.5C 33.6433,68.8018 33.1433,70.1351 33,71.5C 34.4902,70.2721 35.9902,70.2721 37.5,71.5C 37.1847,75.8004 34.8514,77.467 30.5,76.5C 27.9407,76.1984 25.6074,76.5318 23.5,77.5C 23.1667,77.5 22.8333,77.5 22.5,77.5C 19.3586,76.6787 16.0252,76.1787 12.5,76C 11.4258,75.2613 10.7591,74.2613 10.5,73C 11.4872,70.6794 13.1539,69.0128 15.5,68C 16.7839,67.3162 17.9505,67.4829 19,68.5C 19.3519,66.7525 19.8519,65.0858 20.5,63.5 Z"/></g>
<g><path style="opacity:1" fill="#6f6460" d="M 28.5,63.5 C 29.8333,64.1667 31.1667,64.8333 32.5,65.5C 31.0695,65.4208 29.7362,65.7542 28.5,66.5C 26.422,64.0136 23.7553,63.0136 20.5,63.5C 21.2613,62.6091 22.2613,61.9424 23.5,61.5C 25.0754,62.4565 26.742,63.1231 28.5,63.5 Z"/></g>
<g><path style="opacity:0.949" fill="#523735" d="M 18.5,63.5 C 19.1667,63.5 19.8333,63.5 20.5,63.5C 19.8519,65.0858 19.3519,66.7525 19,68.5C 17.9505,67.4829 16.7839,67.3162 15.5,68C 13.1539,69.0128 11.4872,70.6794 10.5,73C 10.7591,74.2613 11.4258,75.2613 12.5,76C 16.0252,76.1787 19.3586,76.6787 22.5,77.5C 18.8183,77.6653 15.1516,77.4986 11.5,77C 7.98014,74.7627 7.64681,72.0961 10.5,69C 13.6472,67.6566 16.3139,65.8233 18.5,63.5 Z"/></g>
<g><path style="opacity:1" fill="#736b67" d="M 53.5,65.5 C 57.412,66.7646 61.5787,67.4313 66,67.5C 70.229,67.4898 74.0623,66.8232 77.5,65.5C 78.404,66.209 78.7373,67.209 78.5,68.5C 64.1628,68.3334 49.8295,68.5001 35.5,69C 36.756,69.4169 37.4226,70.2502 37.5,71.5C 35.9902,70.2721 34.4902,70.2721 33,71.5C 33.1433,70.1351 33.6433,68.8018 34.5,67.5C 41.2547,68.1229 47.588,67.4563 53.5,65.5 Z"/></g>
<g><path style="opacity:1" fill="#736864" d="M 37.5,71.5 C 38.8866,73.4888 38.5532,75.3221 36.5,77C 34.2884,77.7891 32.2884,77.6225 30.5,76.5C 34.8514,77.467 37.1847,75.8004 37.5,71.5 Z"/></g>
</svg>