<svg xmlns="http://www.w3.org/2000/svg" width="32" height="32" viewBox="0 2.4 24 24"><path fill="currentColor" d="M1 22.4v-2.8q0-.85.438-1.563T2.6 16.95q1.55-.775 3.15-1.163T9 15.4q1.65 0 3.25.388t3.15 1.162q.725.375 1.163 1.088T17 19.6v2.8H1Zm18 0v-3q0-1.1-.613-2.112T16.65 15.55q1.275.15 2.4.513t2.1.887q.9.5 1.375 1.113T23 19.4v3h-4Zm-10-8q-1.65 0-2.825-1.175T5 10.4q0-1.65 1.175-2.825T9 6.4q1.65 0 2.825 1.175T13 10.4q0 1.65-1.175 2.825T9 14.4Zm10-4q0 1.65-1.175 2.825T15 14.4q-.275 0-.7-.062t-.7-.138q.675-.8 1.038-1.775T15 10.4q0-1.05-.362-2.025T13.6 6.6q.35-.125.7-.162T15 6.4q1.65 0 2.825 1.175T19 10.4Z"/></svg>